<svg width="26" height="26" viewBox="0 0 26 26" fill="none" xmlns="http://www.w3.org/2000/svg">
<g id="phone-solid 1" clip-path="url(#clip0_1_182)">
<path id="Vector" d="M25.9594 19.6522L24.7787 24.7709C24.6129 25.4945 23.9769 26.0008 23.2319 26.0008C10.4203 25.9998 0 15.5795 0 2.76739C0 2.02294 0.506238 1.38614 1.22992 1.2211L6.34867 0.0404356C7.09414 -0.132322 7.85586 0.254631 8.16563 0.960592L10.528 6.47036C10.8041 7.11934 10.6179 7.87547 10.072 8.32133L7.33789 10.5166C9.06344 14.0317 11.9214 16.8897 15.4375 18.6162L17.6759 15.8842C18.1171 15.3368 18.8789 15.1473 19.5279 15.4284L25.0377 17.7903C25.7004 18.1389 26.132 18.9107 25.9594 19.6522Z" fill="#004B61"/>
</g>
<defs>
<clipPath id="clip0_1_182">
<rect width="26" height="26" fill="white"/>
</clipPath>
</defs>
</svg>
